<svg width="12" height="12" viewBox="0 0 12 12" fill="none" xmlns="http://www.w3.org/2000/svg">
<path d="M2.74404 0.668507C2.16975 0.0942215 1.23547 0.0942215 0.661182 0.668507C0.0868976 1.24279 0.0868976 2.17708 0.661182 2.75136L3.91832 6.00851L0.661182 9.26565C0.0868976 9.83994 0.0868976 10.7742 0.661182 11.3485C0.944039 11.6314 1.32118 11.7771 1.69832 11.7771C2.07547 11.7771 2.45261 11.6314 2.73546 11.3485L5.9926 8.09136L9.24974 11.3485C9.5326 11.6314 9.90974 11.7771 10.2869 11.7771C10.664 11.7771 11.0412 11.6314 11.324 11.3485C11.8983 10.7742 11.8983 9.83994 11.324 9.26565L8.06688 6.00851L11.324 2.75136C11.8983 2.17708 11.8983 1.24279 11.324 0.668507C10.7497 0.0942215 9.81545 0.0942215 9.24117 0.668507L5.98403 3.92565L2.74404 0.668507Z" fill="white"/>
</svg>
