<svg width="17" height="20" viewBox="0 0 17 20" fill="none" xmlns="http://www.w3.org/2000/svg">
<path d="M10.9167 9.99992C13 9.99992 14.6667 11.6666 14.6667 13.7499C14.6667 14.4833 14.4583 15.1749 14.0917 15.7499L16.6583 18.3333L15.5 19.4916L12.9 16.9333C12.325 17.2916 11.6417 17.4999 10.9167 17.4999C8.83333 17.4999 7.16667 15.8333 7.16667 13.7499C7.16667 11.6666 8.83333 9.99992 10.9167 9.99992ZM10.9167 11.6666C10.3641 11.6666 9.83423 11.8861 9.44353 12.2768C9.05283 12.6675 8.83333 13.1974 8.83333 13.7499C8.83333 14.3025 9.05283 14.8324 9.44353 15.2231C9.83423 15.6138 10.3641 15.8333 10.9167 15.8333C11.4692 15.8333 11.9991 15.6138 12.3898 15.2231C12.7805 14.8324 13 14.3025 13 13.7499C13 13.1974 12.7805 12.6675 12.3898 12.2768C11.9991 11.8861 11.4692 11.6666 10.9167 11.6666ZM13.8333 6.66659H2.16667V15.8333H5.91667C6.175 16.4583 6.55 17.0166 7.00833 17.4999H2.16667C1.72464 17.4999 1.30072 17.3243 0.988155 17.0118C0.675595 16.6992 0.5 16.2753 0.5 15.8333V4.16659C0.5 3.24159 1.24167 2.49992 2.16667 2.49992H3V0.833252H4.66667V2.49992H11.3333V0.833252H13V2.49992H13.8333C14.2754 2.49992 14.6993 2.67551 15.0118 2.98807C15.3244 3.30063 15.5 3.72456 15.5 4.16659V10.8583C15.0833 10.1833 14.5 9.61659 13.8333 9.16658V6.66659Z" fill="#2C2C2C"/>
<path d="M3 7.85706V9.16658H4.19048V7.85706H3Z" fill="#2C2C2C"/>
<path d="M3 9.88087V11.1904H4.19048V9.88087H3Z" fill="#2C2C2C"/>
<path d="M3 12.0237V13.3333H4.19048V12.0237H3Z" fill="#2C2C2C"/>
<path d="M5.38095 12.0237V13.3333H6.57143V12.0237H5.38095Z" fill="#2C2C2C"/>
<path d="M5.38095 9.88087V11.1904H6.57143V9.88087H5.38095Z" fill="#2C2C2C"/>
<path d="M5.38095 7.85706V9.16658H6.57143V7.85706H5.38095Z" fill="#2C2C2C"/>
<path d="M8 7.85706V9.16658H9.19048V7.85706H8Z" fill="#2C2C2C"/>
<path d="M10.381 7.85706V9.16658H11.5714V7.85706H10.381Z" fill="#2C2C2C"/>
</svg>
